# xmcd
#
# Track frame offsets:
#	150
#	16904
#	34091
#	50470
#	65057
#	80372
#	93502
#	108121
#	122009
#	135548
#	164314
#	178790
#	192703
#	207537
#
# Disc length: 2939 seconds
#
# Revision: 0
# Processed by: cddbd v1.5.2PL0 Copyright (c) Steve Scherf et al.
# Submitted via: EasyCDDAExtractor 16.0.6.1
#
DISCID=c30b790e
DTITLE=Ξυλούρης Νίκος - Μεγάλες επιτυχίες-Ξυλούρης Νίκος
DYEAR=2009
DGENRE=Κρητική
TTITLE0=Μιά παντρεμένη αγαπώ/Φιλεντέμ [συρτός, Ν. Ξυλούρης]
TTITLE1=Όσο βαρούν τα σίδερα [Παραδ., διασκ. Ν. και Γιάννης Ξυλούρης]
TTITLE2=Σαν έρθουν μάννα οι φίλοι μου [ριζίτικο, διασκ. Ν. και Γιάννης Ξυλούρη
TTITLE2=ς]
TTITLE3=Ζήσω πεθάνω στη ζωή [αργός συρτός, Ν. Ξυλούρης]
TTITLE4=Ήρθες αργά, δεν πρόλαβες [συρτός, Ν. Ξυλούρης]
TTITLE5=Ίντά 'χετε γυρού γυρού [Ν. και Γιάννης Ξυλούρης]
TTITLE6=Κρύψε το μυστικό [συρτός, Ν. Ξυλούρης]
TTITLE7=Εγώ 'μαι του μπεξέ πουλί [συρτός, Ν. και Γιάννης Ξυλούρης]
TTITLE8=Όλα σου είναι όμορφα [συρτός, Ν. Ξυλούρης]
TTITLE9=Εις του Βαρσάμου το νερό [Ν. και Γιάννης Ξυλούρης]
TTITLE10=Πώς είσαι αγάπη μου μακριά [συρτός, Μαν. Μανουράς-Γιάν. Ξυλούρης]
TTITLE11=Η κακομοίρα η μάννα μου [συρτός, Γιάννης Ξυλούρης]
TTITLE12=Δεν κλαίνε οι δυνατές καρδιές [συρτός, Ν. Ξυλούρης]
TTITLE13=Κρητικοπούλα μου [καλαματιανός, Ν. Ξυλούρης]
EXTD=
EXTT0=
EXTT1=
EXTT2=
EXTT3=
EXTT4=
EXTT5=
EXTT6=
EXTT7=
EXTT8=
EXTT9=
EXTT10=
EXTT11=
EXTT12=
EXTT13=
PLAYORDER=
